<svg xmlns="http://www.w3.org/2000/svg" version="1.1" xmlns:xlink="http://www.w3.org/1999/xlink" xmlns:svgjs="http://svgjs.dev/svgjs" width="100%" height="100%" viewBox="0 0 1000 600"><rect width="1000" height="600" x="0" y="0" fill="#295f2d"/><g><circle r="166.66666666666666" cx="358.34194437662757" cy="380.5641254114131" fill="#feff7c" transform="matrix(0.6521447593836139,0,0,0.6521447593836139,0,51.81708889352912)"/><path d="M419.1704834483371 305.56413577441106L419.1704834483371 323.3567055199723L391.93026779097863 323.3567055199723L391.93026779097863 404.89853269560996Q391.93026779097863 420.5750681833239 385.49275511921775 432.0493384547495Q379.0552424474569 443.5236087261751 367.9982183677195 449.5438752062477Q356.9411942879821 455.5641416863204 342.99325016583356 455.5641416863204L342.99325016583356 455.5641416863204Q329.25392913952913 455.5641416863204 317.4518225746342 450.82541708071864Q305.6497160097393 446.11649577452323 297.51341527181927 439.2319336116679L297.51341527181927 439.2319336116679L307.16968427946057 423.7938245192043Q325.20068042027225 437.0860960544142 340.84741260857993 437.0860960544142L340.84741260857993 437.0860960544142Q354.16948744319615 437.0860960544142 361.88854198942795 429.03920521471315Q369.6075965356597 420.9923143750121 369.6075965356597 404.4812865039217L369.6075965356597 404.4812865039217L369.3989734398156 323.3567055199723L331.19114360093863 323.3567055199723L331.19114360093863 305.56413577441106L419.1704834483371 305.56413577441106Z " fill="#295f2d" transform="matrix(0.6521447593836139,0,0,0.6521447593836139,0,51.81708889352912)"/><path d="M702.4117033290117 305.56413618690397L702.4117033290117 319.32201067427286L681.3485588039612 319.32201067427286L681.3485588039612 382.373174154074Q681.3485588039612 394.49485251312933 676.3708353713454 403.3671836314493Q671.3931119387295 412.2395147497693 662.8434110428939 416.8946079599008Q654.2937101470583 421.5497011700323 643.5086427097239 421.5497011700323L643.5086427097239 421.5497011700323Q632.8848903836317 421.5497011700323 623.7590640905025 417.8855436432456Q614.6332377973733 414.2444311323507 608.3419484589283 408.92103246135866L608.3419484589283 408.92103246135866L615.8085336078522 396.9837142294373Q629.750768222355 407.2617913171534 641.8494015655185 407.2617913171534L641.8494015655185 407.2617913171534Q652.1505236691264 407.2617913171534 658.1191827850871 401.03963702638356Q664.0878419010478 394.8174827356137 664.0878419010478 382.05054393158963L664.0878419010478 382.05054393158963L663.9265267898056 319.32201067427286L634.3828164165948 319.32201067427286L634.3828164165948 305.56413618690397L702.4117033290117 305.56413618690397ZM748.0408347946575 421.71101628127445Q736.5874618964624 421.71101628127445 726.6320150312308 416.57197773741643Q716.676568165999 411.4098941776666 710.8000891136053 401.96143766205313Q704.9005650453198 392.5129811464397 704.9005650453198 380.39130278738435L704.9005650453198 380.39130278738435Q704.9005650453198 368.1083093170868 710.8000891136053 358.72898784914855Q716.676568165999 349.372711397102 726.6320150312308 344.21062783735226Q736.5874618964624 339.0715892934942 748.0408347946575 339.0715892934942L748.0408347946575 339.0715892934942Q759.3328925816102 339.0715892934942 769.1961593832748 344.21062783735226Q779.0824712008314 349.372711397102 785.0511303167921 358.8211679127155Q791.0197894327528 368.269624428329 791.0197894327528 380.39130278738435L791.0197894327528 380.39130278738435Q791.0197894327528 392.5129811464397 785.2124454280342 401.96143766205313Q779.4051014233157 411.4098941776666 769.5418346216509 416.57197773741643Q759.6555228040945 421.71101628127445 748.0408347946575 421.71101628127445L748.0408347946575 421.71101628127445ZM748.0408347946575 408.5984022388743Q755.5074199435812 408.5984022388743 761.4760790595419 405.1186048392215Q767.4677831913943 401.6388074395688 770.8554005274802 395.232293021665Q774.2660628794576 388.848823619653 774.2660628794576 380.39130278738435L774.2660628794576 380.39130278738435Q774.2660628794576 371.93378195511565 770.8554005274802 365.55031255310365Q767.4677831913943 359.14379813519986 761.4760790595419 355.6640007355471Q755.5074199435812 352.1842033358943 748.0408347946575 352.1842033358943L748.0408347946575 352.1842033358943Q736.5874618964624 352.1842033358943 729.2130568111056 359.9042836596273Q721.8386517257488 367.6243639833603 721.8386517257488 380.39130278738435L721.8386517257488 380.39130278738435Q721.8386517257488 393.1582415914084 729.2130568111056 400.8783219151414Q736.5874618964624 408.5984022388743 748.0408347946575 408.5984022388743L748.0408347946575 408.5984022388743ZM860.2009271397569 339.0715892934942Q869.8337437825044 339.0715892934942 878.2221295670977 344.21062783735226Q886.5874703357995 349.372711397102 891.4960587207399 358.5676727379064Q896.3816020897889 367.7856790946025 896.3816020897889 379.5616822152817L896.3816020897889 379.5616822152817Q896.3816020897889 391.68336057433703 890.9890683711217 401.2931322011927Q885.5965346524545 410.9259488439401 876.3093932480833 416.3184825626073Q867.022251843712 421.71101628127445 855.7301940567593 421.71101628127445L855.7301940567593 421.71101628127445Q840.1287182980511 421.71101628127445 827.016104255651 408.92103246135866L827.016104255651 408.92103246135866L822.3840560614112 419.38346967620873L812.7512394186638 419.38346967620873L812.7512394186638 318.6767502293041L796.5045032149869 318.6767502293041L796.5045032149869 305.56413618690397L828.6753453998563 305.56413618690397L828.6753453998563 356.1709910851654Q835.1509948654352 348.19741558662326 843.4472005864618 343.6345024400587Q851.7434063074882 339.0715892934942 860.2009271397569 339.0715892934942L860.2009271397569 339.0715892934942ZM852.2503966571064 407.76878166677164Q860.0396120285147 407.76878166677164 866.2617663192846 404.19680420355195Q872.4839206100544 400.6248267403322 875.9637180097072 394.172222290645Q879.4665604252516 387.69657282506597 879.4665604252516 379.4003671040395L879.4665604252516 379.4003671040395Q879.4665604252516 367.6243639833603 872.7374157848635 360.22691388211166Q866.0082711444754 352.8525087967548 855.5688789455171 352.8525087967548L855.5688789455171 352.8525087967548Q848.4249240190777 352.8525087967548 841.5344642674474 357.06974670494327Q834.6670495317087 361.31002962902346 828.6753453998563 368.93792988918943L828.6753453998563 368.93792988918943L828.6753453998563 398.1359650240243Q840.6357086476694 407.76878166677164 852.2503966571064 407.76878166677164L852.2503966571064 407.76878166677164ZM950.306939276461 373.2473478609449Q965.562739796793 377.3954507214581 973.7898104701442 383.61760501222795Q981.9938361276038 389.83975930299783 981.9938361276038 400.30219651784785L981.9938361276038 400.30219651784785Q981.9938361276038 409.93501316059525 973.8589455178194 415.811492212989Q965.747099923927 421.71101628127445 953.7867366761138 421.71101628127445L953.7867366761138 421.71101628127445Q945.4905309550873 421.71101628127445 937.44782040887 418.8073442789152Q929.4051098626526 415.90367227655594 923.0907755083158 410.76463373269786L923.0907755083158 410.76463373269786L923.0907755083158 419.5447847874509L910.485151815534 419.5447847874509L910.485151815534 394.172222290645L917.6291067419734 393.5039168297845Q923.9203960804184 400.6248267403322 933.4610326595989 405.69473023651506Q943.0016692387794 410.76463373269786 952.1274955319086 410.76463373269786L952.1274955319086 410.76463373269786Q958.280514775003 410.76463373269786 961.7603121746558 408.43708712763214Q965.2401095743087 406.10954052256636 965.2401095743087 401.80012255081095L965.2401095743087 401.80012255081095Q965.2401095743087 396.82239911819505 959.7553957920745 393.5730518774597Q954.2937270257321 390.3467496526161 941.8494184441922 387.02826736420553L941.8494184441922 387.02826736420553Q926.9162481463447 383.0414796149345 918.8735376001273 376.98064043540677Q910.8077820380183 370.94284627177086 910.8077820380183 361.1487145177813L910.8077820380183 361.1487145177813Q910.8077820380183 354.9956952746866 914.218444389996 349.94883679439556Q917.6291067419734 344.8789332982127 923.8512610327432 341.97526129585344Q930.0734153235132 339.0715892934942 938.1852609174057 339.0715892934942L938.1852609174057 339.0715892934942Q946.1588364159477 339.0715892934942 953.3719263900625 341.7217661210443Q960.5850163641771 344.3949879644862 965.9084150351691 349.1883512699681L965.9084150351691 349.1883512699681L965.9084150351691 341.23782078731773L978.3527236167088 341.23782078731773L978.3527236167088 366.44906817288154L971.0474535790272 367.27868874498415Q966.3923603688957 359.489473373576 958.3496498226784 354.76524511576923Q950.306939276461 350.0179718420708 942.333363777919 350.0179718420708L942.333363777919 350.0179718420708Q935.8807593282315 350.0179718420708 931.7326564677185 352.5990136219457Q927.5845536072052 355.18005540182054 927.5845536072052 359.32815826233383L927.5845536072052 359.32815826233383Q927.5845536072052 363.7988913453314 933.0462223735476 366.86387845893285Q938.5309361557818 369.9288655725343 950.306939276461 373.2473478609449L950.306939276461 373.2473478609449ZM1112.5899411860953 405.6025501729481L1130.3346034227354 405.6025501729481L1130.3346034227354 419.38346967620873L1076.086636013579 419.38346967620873L1076.086636013579 405.6025501729481L1094.6609188223215 405.6025501729481L1084.0371664962292 379.0546918656634L1034.928237630931 379.0546918656634L1024.465800416081 405.6025501729481L1044.3766941465444 405.6025501729481L1044.3766941465444 419.38346967620873L990.4513569598723 419.38346967620873L990.4513569598723 405.6025501729481L1008.2190642124042 405.6025501729481L1045.206314718647 319.1606955630307L1028.1299579428676 319.1606955630307L1028.1299579428676 305.56413618690397L1092.1720571060137 305.56413618690397L1092.1720571060137 319.1606955630307L1075.2570154414764 319.1606955630307L1112.5899411860953 405.6025501729481ZM1039.9059610635468 366.6103832841237L1079.0594430636136 366.6103832841237L1060.1394850164947 319.1606955630307L1058.8259191106656 319.1606955630307L1039.9059610635468 366.6103832841237ZM1195.7133135076022 339.0715892934942Q1205.5074452615918 339.0715892934942 1213.8036509826184 344.21062783735226Q1222.0998567036447 349.372711397102 1227.0775801362606 358.5676727379064Q1232.0553035688765 367.7856790946025 1232.0553035688765 379.5616822152817L1232.0553035688765 379.5616822152817Q1232.0553035688765 391.68336057433703 1226.6627698502095 401.2931322011927Q1221.270236131542 410.9259488439401 1211.9600497112792 416.3184825626073Q1202.6729083069079 421.71101628127445 1191.403895535847 421.71101628127445L1191.403895535847 421.71101628127445Q1176.6320403492414 421.71101628127445 1164.1877317677017 410.41895849432177L1164.1877317677017 410.41895849432177L1164.1877317677017 442.4515305838407L1182.2780692427177 442.4515305838407L1182.2780692427177 455.5641446262408L1130.8415937723537 455.5641446262408L1130.8415937723537 442.4515305838407L1148.2636257865092 442.4515305838407L1148.2636257865092 354.3504348297179L1130.8415937723537 354.3504348297179L1130.8415937723537 341.23782078731773L1164.1877317677017 341.23782078731773L1164.1877317677017 356.33230619640756Q1170.6633812332807 348.3587306978655 1178.959586954307 343.7266825036257Q1187.2557926753336 339.0715892934942 1195.7133135076022 339.0715892934942L1195.7133135076022 339.0715892934942ZM1187.9010531203023 407.76878166677164Q1195.7133135076022 407.76878166677164 1201.9354677983722 404.19680420355195Q1208.157622089142 400.6248267403322 1211.6374194887946 394.172222290645Q1215.1172168884475 387.69657282506597 1215.1172168884475 379.4003671040395L1215.1172168884475 379.4003671040395Q1215.1172168884475 367.6243639833603 1208.4111172639512 360.22691388211166Q1201.6819726235628 352.8525087967548 1191.219535408713 352.8525087967548L1191.219535408713 352.8525087967548Q1184.0986254981651 352.8525087967548 1177.115985682968 357.1619267685102Q1170.1563908836624 361.47134474026564 1164.1877317677017 369.0992450004316L1164.1877317677017 369.0992450004316L1164.1877317677017 398.1359650240243Q1176.1250499996231 407.76878166677164 1187.9010531203023 407.76878166677164L1187.9010531203023 407.76878166677164ZM1305.384544136394 339.0715892934942Q1315.1786758903834 339.0715892934942 1323.47488161141 344.21062783735226Q1331.7710873324363 349.372711397102 1336.7488107650522 358.5676727379064Q1341.726534197668 367.7856790946025 1341.726534197668 379.5616822152817L1341.726534197668 379.5616822152817Q1341.726534197668 391.68336057433703 1336.334000479001 401.2931322011927Q1330.941466760334 410.9259488439401 1321.6543253559623 416.3184825626073Q1312.3441389356992 421.71101628127445 1301.0751261646385 421.71101628127445L1301.0751261646385 421.71101628127445Q1286.303270978033 421.71101628127445 1273.8589623964933 410.41895849432177L1273.8589623964933 410.41895849432177L1273.8589623964933 442.4515305838407L1291.9492998715093 442.4515305838407L1291.9492998715093 455.5641446262408L1240.5128244011453 455.5641446262408L1240.5128244011453 442.4515305838407L1257.9348564153008 442.4515305838407L1257.9348564153008 354.3504348297179L1240.5128244011453 354.3504348297179L1240.5128244011453 341.23782078731773L1273.8589623964933 341.23782078731773L1273.8589623964933 356.33230619640756Q1280.3346118620723 348.3587306978655 1288.6308175830989 343.7266825036257Q1296.9270233041252 339.0715892934942 1305.384544136394 339.0715892934942L1305.384544136394 339.0715892934942ZM1297.5953287649857 407.76878166677164Q1305.384544136394 407.76878166677164 1311.6066984271636 404.19680420355195Q1317.8288527179336 400.6248267403322 1321.3086501175865 394.172222290645Q1324.788447517239 387.69657282506597 1324.788447517239 379.4003671040395L1324.788447517239 379.4003671040395Q1324.788447517239 367.6243639833603 1318.0823478927425 360.22691388211166Q1311.3532032523547 352.8525087967548 1300.913811053396 352.8525087967548L1300.913811053396 352.8525087967548Q1293.769856126957 352.8525087967548 1286.8102613276512 357.1619267685102Q1279.827621512454 361.47134474026564 1273.8589623964933 369.0992450004316L1273.8589623964933 369.0992450004316L1273.8589623964933 398.1359650240243Q1285.7962806284147 407.76878166677164 1297.5953287649857 407.76878166677164L1297.5953287649857 407.76878166677164Z " fill="#feff7c" transform="matrix(0.6521447593836139,0,0,0.6521447593836139,0,51.81708889352912)"/></g></svg>